<svg xmlns="http://www.w3.org/2000/svg" width="22.976" height="23.028" viewBox="0 0 22.976 23.028">
  <g id="ic-contact-phone-time" transform="translate(-0.29 -0.749)">
    <path id="Path_86" data-name="Path 86" d="M15.67,22.42,18.06,20a2,2,0,0,0,0-2.83L16.7,15.84a2,2,0,0,0-2.83,0l-.9.9h0A16.49,16.49,0,0,1,7.32,11.1h0l.9-.9a2,2,0,0,0,0-2.83L6.87,6A2,2,0,0,0,4,6L1.65,8.4a1,1,0,0,0-.13,1.26h0A46.26,46.26,0,0,0,14.41,22.55h0a1,1,0,0,0,1.26-.13Z" fill="none" stroke="#fff" stroke-linecap="round" stroke-linejoin="round" stroke-width="2"/>
    <path id="Path_87" data-name="Path 87" d="M8.06,3.1A9.5,9.5,0,0,1,21,15.81" fill="none" stroke="#fff" stroke-linecap="round" stroke-linejoin="round" stroke-width="2"/>
    <path id="Path_88" data-name="Path 88" d="M13,5.68v5.6h4" fill="none" stroke="#fff" stroke-linecap="round" stroke-linejoin="round" stroke-width="2"/>
  </g>
</svg>
